<?xml version="1.0" encoding="utf-8"?>
<!-- Generator: Adobe Illustrator 23.0.1, SVG Export Plug-In . SVG Version: 6.00 Build 0)  -->
<svg version="1.1" id="Capa_1" xmlns="http://www.w3.org/2000/svg" xmlns:xlink="http://www.w3.org/1999/xlink" x="0px" y="0px"
	 viewBox="0 0 400 300" style="enable-background:new 0 0 400 300;" xml:space="preserve">
<style type="text/css">
	.st0{fill:#0000FF;}
	.st1{fill:none;stroke:#000000;stroke-miterlimit:10;}
</style>
<rect x="26" y="182" class="st0" width="98" height="98"/>
<path class="st1" d="M148.8,60C95,76.5,47,111.4,14.8,157.5c-3.8,5.5-7.6,12.4-5.2,18.6c2.3,6,9.3,8.6,15.5,10.2
	c50.6,12.7,104.2,0.7,153.4-16.8c18.7-6.7,39-16,46.1-34.5c4.9-12.9,2-27.9-5.2-39.7c-7.2-11.8-18.4-20.7-30.1-27.9
	c-12.2-7.5-27-13.5-40.5-9c-9.5,3.2-16.6,11-23,18.7c-23.5,28.2-43.9,59-60.7,91.6c25.5,11.1,54.7,15.5,81.5,8s50.5-28.4,57.4-55.3
	c6.9-27-6.1-58.9-31.6-69.9c-8.5-3.7-18.6-4.9-26.8-0.6c-9.4,5-13.8,15.9-16.9,26.1c-8.6,28.4-12.8,58.1-12.3,87.7
	c30.9,8.2,66.2-4.3,85-30.1s19.8-63.3,2.5-90.2c-16.9,38.1-30.6,77.6-40.7,118c-2.5,9.9-4.7,20.5-1.1,30
	c5.7,14.9,23.2,21.2,38.9,23.9c19.4,3.4,39.5,4.2,58.7-0.3c19.2-4.5,37.4-14.6,49.6-30.1c5.4-6.9,9.7-15.2,10.2-24
	s-3.1-18.2-10.6-22.9c-7.7-4.8-18.2-3.7-25.9,1.1c-7.7,4.8-13,12.8-16.5,21.3c-5.2,12.7-6.2,28.3,2.2,39.1
	c9.9,12.7,28.6,14,44.4,11.1c16.1-3,32.2-9.6,42.7-22.2c5.5-6.5,9.3-14.8,9.2-23.3c-0.2-8.5-4.9-17.2-12.7-20.7
	c-10.7-4.8-23.2,1-32.4,8.3c-12.3,9.7-22.2,22.3-28.9,36.4c-3.7,7.9-6.4,17.1-3.1,25.1c4.6,11,18.3,14.9,30.3,14.9
	c11.9,0,24.4-2.3,35.5,2c-7.1,14.7-26.4,17.7-42.7,18.3c-84.5,3.4-169-4.1-253.2-11.5c6-13.2,19.4-22,33.5-25.9s28.9-3.5,43.4-3
	c85.9,3,171.6,10.7,257.2,18.3c-70,14.5-141.5,22-212.9,22.2c37.1,12.2,76.9,16.1,115.6,11.3c11.2-1.4,23.3-4.1,30-13.2
	c7.1-9.7,5.4-23.3,1.5-34.7c-6.2-18.1-17.5-34.7-33.5-45.2c-16-10.5-36.8-14.2-54.7-7.6s-31.8,24.3-31.9,43.4
	c10.7-0.7,21.6-1.5,31.8-5c10.2-3.5,19.8-10.2,24.4-19.9c6.3-13.2,2.4-29.2-5.2-41.7c-7.9-13-20.3-24-35.2-27.3
	c-14.9-3.3-32.1,2.2-40.1,15.2c16.9,0.8,34-6.6,45-19.5s15.7-30.9,12.3-47.5c-2.4-12.1-10.1-24.2-22-27.5
	c-14-3.9-28.1,5.3-39.3,14.6c-3.6,3-7.3,6.4-7.9,11c-1,9.2,11.2,14.2,20.3,12.5s18.1-6.6,27.2-4.5c-8.6-21.5-25.8-39.3-46.9-48.7
	s-45.9-10.1-67.6-1.9c-6.9,2.6-14.2,6.8-16.2,14c-2.3,8.2,4.9,17.4,13.4,17.6s16-8,15.4-16.5c-0.7-9.2-9-15.9-17.6-19.2
	c-13.6-5.1-29.5-4-42.3,2.9S33.2,33.3,30.1,47.6c-1.2,5.3-1.3,11.3,1.7,15.8c3.8,5.7,11.3,7.3,18.2,8.2c23.5,3,47.5,2.5,70.9-1.6
	c-10.6-8-21.7-16.3-34.6-19.6s-28.4-0.5-36.3,10.2c-5.5,7.5-6.5,17.3-7.1,26.6C42,99,41.7,111.4,46.9,122
	c5.4,10.9,16.2,18.4,27.7,22.4c11.5,4,23.8,5,35.9,5.9C94.3,149.9,80.1,163,73.8,178s-6.2,31.9-6.1,48.2c1.5,0.7,3,1.5,4.5,2.2
	c0.4-3.6-1.7-7.4-5.1-9c-10.2,16.3-3.4,39.1,10.9,51.9c14.3,12.9,34,17.7,53.1,20c4.1,0.5,8.3,0.9,12.1-0.6c3.8-1.4,7.1-5.2,6.5-9.3
	c-0.6-4-5.2-6.9-9-5.6c-3.8,1.3-5.7,6.4-3.7,9.9c39.4,4.3,79.8-1,116.7-15.4c-3.9,3.1-2.1,10,2.2,12.4c4.3,2.4,9.7,1.5,14.5-0.1
	c15-5,27.8-16.4,34.4-30.8c17.9,4.3,37.4,0.9,52.8-9.1c15.4-10,26.4-26.5,29.7-44.6c1.1-5.9,1.2-12.4-2.2-17.2
	c-5.1-7.1-15.3-7.4-24-7.1c-17.3,0.7-34.7,1.3-52,2c-26.3-12.2-52.5-24.4-78.8-36.7c-5-2.3-10.8-5.7-11-11.2c-0.1-3.3,1.9-6.3,3.8-9
	c6.1-8.6,12.3-17.2,18.4-25.7c9.2,0.1,21.4-2.3,22.2-11.5c0.6-6.6-5.6-11.6-11.2-15c-21.6-13.1-45.6-21.9-70.5-26
	c3.2-0.1,6.4-0.2,9.6-0.3c-13-2.7-29.3-4.1-36.8,6.9c-2.7,4-3.6,8.9-4.4,13.6c-3,17.4-6.1,34.7-9.1,52.1
	c-1.8,10.6-3.6,21.8,0.3,31.8c4,10.2,13.6,17.5,24,21.3c10.3,3.8,21.5,4.6,32.5,5.4"/>
<circle class="st0" cx="314.5" cy="66.5" r="50.5"/>
</svg>
